{"title":"300 Rise Of An Empire Webrip XviD AC3 ACAB","uid":9810276,"size":932626656,"categoryP":"video","categoryS":"movies","magnet":"?xt=urn:btih:9a74529f3e99a80beedf1ff6a7d9a2cec6ad4e7c&amp;dn=300+Rise+Of+An+Empire+Webrip+XviD+AC3+ACAB&amp;tr=udp%3A%2F%2Ftracker.openbittorrent.com%3A80&amp;tr=udp%3A%2F%2Fopen.demonii.com%3A1337&amp;tr=udp%3A%2F%2Ftracker.coppersurfer.tk%3A6969&amp;tr=udp%3A%2F%2Fexodus.desync.com%3A6969","seeders":1,"leechers":0,"uploader":"xxxlavalxxx","files":-1,"time":1395512173,"description":"\n &lt;a href=&quot;\nhttp://www.imdb.com/title/tt1253863/&quot; rel=&quot;nofollow&quot; target=&quot;_NEW&quot;&gt;\nhttp://www.imdb.com/title/tt1253863/&lt;/a&gt;\n\n\nGreek general Themistokles leads the charge against invading Persian forces led by mortal-turned-god Xerxes and Artemisia, vengeful commander of the Persian navy.\n\nDirector: Noam Murro\nWriters: Zack Snyder (screenplay), Kurt Johnstad (screenplay)\nStars: Sullivan Stapleton, Eva Green, Lena Headey\nGenres: Action | Drama | War\nCountry: USA\nLanguage: English\n\n\n\nFormat                                   : AVI\nFormat/Info                              : Audio Video Interleave\nFile size                                : 880 MiB\nDuration                                 : 1h 43mn\nOverall bit rate                         : 1 195 Kbps\nWriting library                          : VirtualDub build 30091/release\n\nVideo\nID                                       : 0\nFormat                                   : MPEG-4 Visual\nFormat profile                           : Advanced Simple@L5\nFormat settings, BVOP                    : 2\nFormat settings, QPel                    : No\nFormat settings, GMC                     : No warppoints\nFormat settings, Matrix                  : Default (H.263)\nMuxing mode                              : Packed bitstream\nCodec ID                                 : XVID\nCodec ID/Hint                            : XviD\nDuration                                 : 1h 43mn\nBit rate                                 : 993 Kbps\nWidth                                    : 640 pixels\nHeight                                   : 272 pixels\nDisplay aspect ratio                     : 2.35:1\nFrame rate                               : 25.000 fps\nColor space                              : YUV\nChroma subsampling                       : 4:2:0\nBit depth                                : 8 bits\nScan type                                : Progressive\nCompression mode                         : Lossy\nBits/(Pixel*Frame)                       : 0.228\nStream size                              : 732 MiB (83%)\nWriting library                          : XviD 64\n\nAudio\nID                                       : 1\nFormat                                   : AC-3\nFormat/Info                              : Audio Coding 3\nMode extension                           : CM (complete main)\nFormat settings, Endianness              : Big\nCodec ID                                 : 2000\nDuration                                 : 1h 43mn\nBit rate mode                            : Constant\nBit rate                                 : 192 Kbps\nChannel(s)                               : 2 channels\nChannel positions                        : Front: L R\nSampling rate                            : 48.0 KHz\nBit depth                                : 16 bits\nCompression mode                         : Lossy\nStream size                              : 141 MiB (16%)\n\n\nscreens\n &lt;a href=&quot;\nhttp://i.imgur.com/SkVugme.png&quot; rel=&quot;nofollow&quot; target=&quot;_NEW&quot;&gt;\nhttp://i.imgur.com/SkVugme.png&lt;/a&gt; &lt;a href=&quot;\nhttp://i.imgur.com/NSW0TN4.png&quot; rel=&quot;nofollow&quot; target=&quot;_NEW&quot;&gt;\nhttp://i.imgur.com/NSW0TN4.png&lt;/a&gt; &lt;a href=&quot;\nhttp://i.imgur.com/ArbXHBt.png&quot; rel=&quot;nofollow&quot; target=&quot;_NEW&quot;&gt;\nhttp://i.imgur.com/ArbXHBt.png&lt;/a&gt; &lt;a href=&quot;\nhttp://i.imgur.com/RcIYU3l.png&quot; rel=&quot;nofollow&quot; target=&quot;_NEW&quot;&gt;\nhttp://i.imgur.com/RcIYU3l.png&lt;/a&gt;","torrent":{"xt":"urn:btih:9a74529f3e99a80beedf1ff6a7d9a2cec6ad4e7c","amp;dn":"300+Rise+Of+An+Empire+Webrip+XviD+AC3+ACAB","amp;tr":["udp%3A%2F%2Ftracker.openbittorrent.com%3A80","udp%3A%2F%2Fopen.demonii.com%3A1337","udp%3A%2F%2Ftracker.coppersurfer.tk%3A6969","udp%3A%2F%2Fexodus.desync.com%3A6969"],"infoHash":"9a74529f3e99a80beedf1ff6a7d9a2cec6ad4e7c","infoHashBuffer":{"type":"Buffer","data":[154,116,82,159,62,153,168,11,238,223,31,246,167,217,162,206,198,173,78,124]},"announce":[],"urlList":[]}}